<svg width="395" height="87" viewBox="0 0 395 87" fill="none" xmlns="http://www.w3.org/2000/svg">
<g filter="url(#filter0_i_12_923)">
<rect x="17" width="361" height="87" rx="11" fill="#2194FF"/>
</g>
<rect x="19" y="2" width="357" height="83" rx="9" stroke="url(#paint0_linear_12_923)" stroke-width="4"/>
<path opacity="0.31" d="M369 30.1618V18.3426C368.935 16.0942 368.136 13.9649 366.773 12.4071C365.411 10.8493 363.592 9.98582 361.704 10.0002H33.0193C32.0986 9.99886 31.1868 10.2136 30.3357 10.6321C29.4847 11.0507 28.7112 11.6648 28.0594 12.4395C27.4076 13.2141 26.8902 14.1342 26.5369 15.147C26.1835 16.1599 26.0011 17.2457 26 18.3426V54C26 54 70.0868 35.8366 163.938 29.5923C251.181 23.7876 369 30.1618 369 30.1618Z" fill="url(#paint1_linear_12_923)"/>
<path opacity="0.15" d="M28 79H361.97C362.893 79.0013 363.807 78.7865 364.66 78.3677C365.513 77.949 366.288 77.3346 366.94 76.5596C367.593 75.7847 368.111 74.8644 368.465 73.8514C368.818 72.8385 369 71.7526 369 70.6561V53C369 53 355.016 69.4484 279.131 72.8518C212.787 75.8461 28 79 28 79Z" fill="white"/>
<g filter="url(#filter1_d_12_923)">
<path d="M84.2369 34.2H93.8369C95.4049 34.2 96.5569 34.56 97.2929 35.28C98.0289 35.984 98.3969 37.064 98.3969 38.52C98.3969 39.48 98.1889 40.264 97.7729 40.872C97.3569 41.464 96.8449 41.88 96.2369 42.12C97.5329 42.472 98.4129 43.336 98.8769 44.712C99.0369 45.208 99.1169 45.784 99.1169 46.44C99.1169 48.008 98.7489 49.16 98.0129 49.896C97.2769 50.632 96.1249 51 94.5569 51H84.2369V34.2ZM94.7969 45.72C94.7969 44.76 94.3169 44.28 93.3569 44.28H88.5569V47.64H93.3569C94.3169 47.64 94.7969 47.16 94.7969 46.2V45.72ZM94.0769 39C94.0769 38.04 93.5969 37.56 92.6369 37.56H88.5569V40.92H92.6369C93.5969 40.92 94.0769 40.44 94.0769 39.48V39ZM105.956 41.04C105.316 41.04 104.996 41.36 104.996 42V43.32H109.076V42C109.076 41.36 108.756 41.04 108.116 41.04H105.956ZM112.796 50.76C109.708 51.08 106.908 51.24 104.396 51.24C103.308 51.24 102.436 50.912 101.78 50.256C101.124 49.6 100.796 48.728 100.796 47.64V41.88C100.796 40.68 101.132 39.744 101.804 39.072C102.492 38.384 103.436 38.04 104.636 38.04H109.436C110.636 38.04 111.572 38.384 112.244 39.072C112.932 39.744 113.276 40.68 113.276 41.88V46.32H104.996V47.28C104.996 47.52 105.076 47.72 105.236 47.88C105.396 48.04 105.596 48.12 105.836 48.12C107.42 48.12 109.74 48 112.796 47.76V50.76ZM122.507 41.52C121.659 41.52 120.699 41.68 119.627 42V47.76H123.227C123.867 47.76 124.187 47.44 124.187 46.8V42.36C124.187 42.12 124.107 41.92 123.947 41.76C123.787 41.6 123.587 41.52 123.347 41.52H122.507ZM119.627 51V55.08H115.427V38.28H119.147L119.387 39.48C120.139 38.984 120.907 38.624 121.691 38.4C122.491 38.16 123.163 38.04 123.707 38.04H124.787C125.875 38.04 126.747 38.368 127.403 39.024C128.059 39.68 128.387 40.552 128.387 41.64V47.16C128.387 48.36 128.043 49.304 127.355 49.992C126.683 50.664 125.747 51 124.547 51H119.627ZM139.064 42.96V38.28H143.264V51H139.064V46.2H134.744V51H130.544V38.28H134.744V42.96H139.064ZM149.021 55.32C148.173 55.32 147.133 55.24 145.901 55.08V51.96H148.061C148.669 51.96 149.061 51.792 149.237 51.456C149.429 51.12 149.397 50.648 149.141 50.04L144.221 38.28H148.661L151.661 46.44L154.181 38.28H158.621L153.821 51.48C153.357 52.744 152.757 53.696 152.021 54.336C151.285 54.992 150.285 55.32 149.021 55.32ZM166.548 41.52V51H162.348V41.52H158.388V38.28H170.508V41.52H166.548ZM171.958 51V38.28H176.158V42.24H181.078C182.166 42.24 183.038 42.568 183.694 43.224C184.35 43.88 184.678 44.752 184.678 45.84V47.4C184.678 48.488 184.35 49.36 183.694 50.016C183.038 50.672 182.166 51 181.078 51H171.958ZM179.638 48C179.878 48 180.078 47.92 180.238 47.76C180.398 47.6 180.478 47.4 180.478 47.16V46.08C180.478 45.84 180.398 45.64 180.238 45.48C180.078 45.32 179.878 45.24 179.638 45.24H176.158V48H179.638ZM197.628 50.76C194.636 51.08 191.996 51.24 189.708 51.24C188.62 51.24 187.748 50.912 187.092 50.256C186.436 49.6 186.108 48.728 186.108 47.64V42.12C186.108 40.92 186.444 39.984 187.116 39.312C187.804 38.624 188.748 38.28 189.948 38.28H197.628V41.52H191.268C190.628 41.52 190.308 41.84 190.308 42.48V47.16C190.308 47.4 190.388 47.6 190.548 47.76C190.708 47.92 190.908 48 191.148 48C192.588 48 194.748 47.88 197.628 47.64V50.76ZM212.024 38.28V51H207.824V47.04H205.784L203.504 51H199.064L201.464 46.8C200.792 46.56 200.264 46.152 199.88 45.576C199.496 45 199.304 44.288 199.304 43.44V41.88C199.304 40.792 199.632 39.92 200.288 39.264C200.944 38.608 201.816 38.28 202.904 38.28H212.024ZM204.344 41.28C204.104 41.28 203.904 41.36 203.744 41.52C203.584 41.68 203.504 41.88 203.504 42.12V43.2C203.504 43.44 203.584 43.64 203.744 43.8C203.904 43.96 204.104 44.04 204.344 44.04H207.824V41.28H204.344ZM230.142 42.96V38.28H234.342V51H230.142V46.2H225.822V51H221.622V38.28H225.822V42.96H230.142ZM241.779 47.88C242.627 47.88 243.587 47.72 244.659 47.4V45.96H241.179C240.939 45.96 240.739 46.04 240.579 46.2C240.419 46.36 240.339 46.56 240.339 46.8V47.04C240.339 47.28 240.419 47.48 240.579 47.64C240.739 47.8 240.939 47.88 241.179 47.88H241.779ZM237.339 38.52C240.267 38.2 242.907 38.04 245.259 38.04C246.347 38.04 247.219 38.368 247.875 39.024C248.531 39.68 248.859 40.552 248.859 41.64V51H245.139L244.899 49.8C244.147 50.296 243.371 50.664 242.571 50.904C241.787 51.128 241.123 51.24 240.579 51.24H239.739C238.651 51.24 237.779 50.912 237.123 50.256C236.467 49.6 236.139 48.728 236.139 47.64V46.56C236.139 45.472 236.467 44.6 237.123 43.944C237.779 43.288 238.651 42.96 239.739 42.96H244.659V42C244.659 41.76 244.579 41.56 244.419 41.4C244.259 41.24 244.059 41.16 243.819 41.16C242.779 41.16 241.627 41.208 240.363 41.304C239.115 41.4 238.107 41.472 237.339 41.52V38.52ZM269.488 50.76C266.496 51.08 263.856 51.24 261.568 51.24C260.48 51.24 259.608 50.912 258.952 50.256C258.296 49.6 257.968 48.728 257.968 47.64V42.12C257.968 40.92 258.304 39.984 258.976 39.312C259.664 38.624 260.608 38.28 261.808 38.28H269.488V41.52H263.128C262.488 41.52 262.168 41.84 262.168 42.48V47.16C262.168 47.4 262.248 47.6 262.408 47.76C262.568 47.92 262.768 48 263.008 48C264.448 48 266.608 47.88 269.488 47.64V50.76ZM276.443 47.88C277.291 47.88 278.251 47.72 279.323 47.4V45.96H275.843C275.603 45.96 275.403 46.04 275.243 46.2C275.083 46.36 275.003 46.56 275.003 46.8V47.04C275.003 47.28 275.083 47.48 275.243 47.64C275.403 47.8 275.603 47.88 275.843 47.88H276.443ZM272.003 38.52C274.931 38.2 277.571 38.04 279.923 38.04C281.011 38.04 281.883 38.368 282.539 39.024C283.195 39.68 283.523 40.552 283.523 41.64V51H279.803L279.563 49.8C278.811 50.296 278.035 50.664 277.235 50.904C276.451 51.128 275.787 51.24 275.243 51.24H274.403C273.315 51.24 272.443 50.912 271.787 50.256C271.131 49.6 270.803 48.728 270.803 47.64V46.56C270.803 45.472 271.131 44.6 271.787 43.944C272.443 43.288 273.315 42.96 274.403 42.96H279.323V42C279.323 41.76 279.243 41.56 279.083 41.4C278.923 41.24 278.723 41.16 278.483 41.16C277.443 41.16 276.291 41.208 275.027 41.304C273.779 41.4 272.771 41.472 272.003 41.52V38.52ZM290.717 37.08C288.637 37.08 287.597 36.04 287.597 33.96V33.24H290.717V33.84C290.717 34.08 290.797 34.28 290.957 34.44C291.117 34.6 291.317 34.68 291.557 34.68H292.277C292.517 34.68 292.717 34.6 292.877 34.44C293.037 34.28 293.117 34.08 293.117 33.84V33.24H296.237V33.96C296.237 36.04 295.197 37.08 293.117 37.08H290.717ZM293.957 38.28H298.397V51H294.197V44.04L290.117 51H285.677V38.28H289.877V45.24L293.957 38.28ZM307.994 41.52V51H303.794V41.52H299.834V38.28H311.954V41.52H307.994Z" fill="#F1F1F1"/>
</g>
<defs>
<filter id="filter0_i_12_923" x="17" y="0" width="361" height="91" filterUnits="userSpaceOnUse" color-interpolation-filters="sRGB">
<feFlood flood-opacity="0" result="BackgroundImageFix"/>
<feBlend mode="normal" in="SourceGraphic" in2="BackgroundImageFix" result="shape"/>
<feColorMatrix in="SourceAlpha" type="matrix" values="0 0 0 0 0 0 0 0 0 0 0 0 0 0 0 0 0 0 127 0" result="hardAlpha"/>
<feOffset dy="4"/>
<feGaussianBlur stdDeviation="6"/>
<feComposite in2="hardAlpha" operator="arithmetic" k2="-1" k3="1"/>
<feColorMatrix type="matrix" values="0 0 0 0 0 0 0 0 0 0 0 0 0 0 0 0 0 0 0.45 0"/>
<feBlend mode="normal" in2="shape" result="effect1_innerShadow_12_923"/>
</filter>
<filter id="filter1_d_12_923" x="84.2368" y="33.24" width="228.717" height="24.08" filterUnits="userSpaceOnUse" color-interpolation-filters="sRGB">
<feFlood flood-opacity="0" result="BackgroundImageFix"/>
<feColorMatrix in="SourceAlpha" type="matrix" values="0 0 0 0 0 0 0 0 0 0 0 0 0 0 0 0 0 0 127 0" result="hardAlpha"/>
<feOffset dx="1" dy="2"/>
<feComposite in2="hardAlpha" operator="out"/>
<feColorMatrix type="matrix" values="0 0 0 0 0 0 0 0 0 0 0 0 0 0 0 0 0 0 0.25 0"/>
<feBlend mode="normal" in2="BackgroundImageFix" result="effect1_dropShadow_12_923"/>
<feBlend mode="normal" in="SourceGraphic" in2="effect1_dropShadow_12_923" result="shape"/>
</filter>
<linearGradient id="paint0_linear_12_923" x1="17" y1="32" x2="378" y2="32" gradientUnits="userSpaceOnUse">
<stop stop-color="#2194FF"/>
<stop offset="0.522421" stop-color="#81C0FB"/>
<stop offset="1" stop-color="#0079C2"/>
</linearGradient>
<linearGradient id="paint1_linear_12_923" x1="197.5" y1="0.568788" x2="197.5" y2="64.4105" gradientUnits="userSpaceOnUse">
<stop stop-color="#81C0FB"/>
<stop offset="1" stop-color="white"/>
</linearGradient>
</defs>
</svg>
